<svg width="253" height="328" viewBox="0 0 253 328" fill="none" xmlns="http://www.w3.org/2000/svg">
<path d="M135.718 315.512H117.118C58.8225 315.512 11.5645 268.254 11.5645 209.959V117.118C11.5645 58.8225 58.8225 11.5645 117.118 11.5645H135.718C194.013 11.5645 241.271 58.8225 241.271 117.118V209.959C241.273 268.254 194.013 315.512 135.718 315.512Z" fill="url(#paint0_linear_315_51)"/>
<mask id="mask0_315_51" style="mask-type:luminance" maskUnits="userSpaceOnUse" x="11" y="11" width="231" height="305">
<path d="M135.718 315.512H117.118C58.8225 315.512 11.5645 268.254 11.5645 209.959V117.118C11.5645 58.8225 58.8225 11.5645 117.118 11.5645H135.718C194.013 11.5645 241.271 58.8225 241.271 117.118V209.959C241.273 268.254 194.013 315.512 135.718 315.512Z" fill="white"/>
</mask>
<g mask="url(#mask0_315_51)">
<path d="M241.179 371.431C241.179 371.431 244.195 335.895 215.916 334.784C215.916 334.784 215.916 298.15 194.535 299.259C194.535 299.259 193.038 278.898 169.015 259.294C142.553 237.699 129.793 204.348 129.793 168.818H124.965C124.965 204.348 110.825 240.984 85.8704 259.294C61.362 277.277 60.3506 299.259 60.3506 299.259C38.9696 298.148 38.9696 334.784 38.9696 334.784C10.691 335.895 13.7065 371.431 13.7065 371.431H241.179Z" fill="white"/>
</g>
<mask id="mask1_315_51" style="mask-type:luminance" maskUnits="userSpaceOnUse" x="11" y="11" width="231" height="305">
<path d="M135.718 315.512H117.118C58.8225 315.512 11.5645 268.254 11.5645 209.959V117.118C11.5645 58.8225 58.8225 11.5645 117.118 11.5645H135.718C194.013 11.5645 241.271 58.8225 241.271 117.118V209.959C241.273 268.254 194.013 315.512 135.718 315.512Z" fill="white"/>
</mask>
<g mask="url(#mask1_315_51)">
<path d="M127.003 172.986C127.003 172.986 126.419 226.435 106.735 273.81C92.0027 309.267 68.7611 297.882 68.2164 320.243C67.6704 342.604 49.6735 334.969 44.2188 349.694C38.7654 364.42 40.4008 371.431 40.4008 371.431H213.835C213.835 371.431 214.015 344.24 196.472 341.513C178.929 338.786 190.382 306.063 172.93 297.336C155.478 288.609 132.135 283.702 127.003 172.986Z" fill="#C7EAE7"/>
</g>
<mask id="mask2_315_51" style="mask-type:luminance" maskUnits="userSpaceOnUse" x="11" y="11" width="231" height="305">
<path d="M135.718 315.512H117.118C58.8225 315.512 11.5645 268.254 11.5645 209.959V117.118C11.5645 58.8225 58.8225 11.5645 117.118 11.5645H135.718C194.013 11.5645 241.271 58.8225 241.271 117.118V209.959C241.273 268.254 194.013 315.512 135.718 315.512Z" fill="white"/>
</mask>
<g mask="url(#mask2_315_51)">
<path d="M146.392 128.936C147.763 129.088 151.571 129.469 151.876 129.545C152.18 129.621 175.261 137.543 179.146 138.914C183.03 140.285 197.731 146.455 197.731 146.455C197.731 146.455 196.589 141.199 196.36 140.818C196.205 140.56 168.739 122.141 150.737 110.039L151.286 107.893C151.31 107.816 151.381 107.765 151.461 107.765C151.959 107.765 152.383 107.403 152.46 106.911C152.623 105.85 152.876 103.935 152.926 101.938C153.002 98.9286 152.782 95.3773 152.317 95.0062C151.556 94.3973 146.147 94.5873 145.31 95.1207C144.473 95.6541 144.51 97.253 144.587 100.606C144.635 102.701 144.995 104.957 145.259 106.353C139.502 102.479 135.597 99.8382 135.425 99.6859C134.739 99.0771 133.216 97.7058 133.216 96.1057C133.216 94.5055 133.064 72.1118 133.064 69.1417C133.064 66.1716 128.798 48.2715 125.523 48.2715C122.247 48.2715 118.962 66.5414 118.962 68.6737C118.962 70.806 119.125 96.1069 119.125 96.1069C119.125 98.0115 118.668 99.0016 116.078 100.829C115.461 101.265 111.858 103.874 106.729 107.592C106.977 106.39 107.49 103.626 107.548 101.096C107.624 97.7449 107.662 96.1447 106.824 95.6113C105.987 95.0779 100.578 94.8879 99.816 95.4968C99.3518 95.8679 99.1304 99.4192 99.2072 102.428C99.2575 104.426 99.5103 106.341 99.6739 107.401C99.7494 107.893 100.175 108.255 100.673 108.255C100.753 108.255 100.824 108.307 100.849 108.384L101.599 111.314C84.4672 123.743 58.3435 142.722 58.3435 142.722C58.3435 142.722 56.8968 148.511 57.2013 148.739C57.5057 148.968 69.3888 142.798 82.7185 137.314C96.0483 131.83 104.58 129.545 106.483 129.545C108.387 129.545 119.128 129.545 119.128 129.545C119.128 129.545 120.118 155.443 120.499 161.841C120.88 168.239 122.631 174.104 122.631 174.104C122.631 174.104 123.621 174.865 119.509 177.837C115.395 180.807 102.903 191.623 102.903 191.623L102.98 197.64L125.603 188.499C125.603 188.499 126.974 192.993 127.735 194.745C127.735 194.745 129.106 191.013 129.715 188.271L152.719 196.649C152.719 196.649 153.481 191.47 152.719 190.784C151.958 190.098 133.752 176.16 133.218 175.55C132.685 174.941 131.847 174.178 132.304 172.274C132.761 170.369 133.903 160.239 134.132 154.83C134.361 149.422 134.055 128.856 134.055 128.856C134.055 128.856 145.021 128.783 146.392 128.936Z" fill="url(#paint1_linear_315_51)"/>
</g>
<path d="M117.118 325.576C53.3661 325.576 1.5 273.71 1.5 209.958V117.118C1.5 53.3661 53.3661 1.5 117.118 1.5H135.717C199.469 1.5 251.335 53.3661 251.335 117.118V209.958C251.335 273.711 199.469 325.576 135.717 325.576H117.118Z" stroke="url(#paint2_linear_315_51)" stroke-width="3" stroke-miterlimit="10"/>
<defs>
<linearGradient id="paint0_linear_315_51" x1="126.418" y1="71.897" x2="126.418" y2="329.031" gradientUnits="userSpaceOnUse">
<stop stop-color="#94DBD7"/>
<stop offset="0.6757" stop-color="#037AD6"/>
<stop offset="1" stop-color="#1F4AA0"/>
</linearGradient>
<linearGradient id="paint1_linear_315_51" x1="127.443" y1="85.0414" x2="127.443" y2="194.284" gradientUnits="userSpaceOnUse">
<stop stop-color="#252E8D"/>
<stop offset="1" stop-color="#101445"/>
</linearGradient>
<linearGradient id="paint2_linear_315_51" x1="126.418" y1="-0.387252" x2="126.418" y2="327.463" gradientUnits="userSpaceOnUse">
<stop stop-color="#29D3F6"/>
<stop offset="0.5211" stop-color="#252E8D"/>
<stop offset="1" stop-color="#29D3F6"/>
</linearGradient>
</defs>
</svg>
